<?xml version="1.0" standalone="no"?>
<!DOCTYPE svg PUBLIC "-//W3C//DTD SVG 20010904//EN"
 "http://www.w3.org/TR/2001/REC-SVG-20010904/DTD/svg10.dtd">
<svg version="1.0" xmlns="http://www.w3.org/2000/svg"
 width="512.000000pt" height="512.000000pt" viewBox="0 0 512.000000 512.000000"
 preserveAspectRatio="xMidYMid meet">
<metadata>
D11
</metadata>
<g transform="translate(0.000000,512.000000) scale(0.100000,-0.100000)"
fill="#000000" stroke="none">
<path d="M0 2560 l0 -2560 2560 0 2560 0 0 2560 0 2560 -2560 0 -2560 0 0
-2560z m2521 2260 c73 -115 140 -218 149 -230 15 -19 23 -12 225 205 115 124
214 224 220 222 6 -2 16 -98 25 -230 8 -124 18 -228 21 -232 4 -3 36 29 72 72
59 69 192 193 235 217 12 7 14 5 7 -10 -44 -103 -89 -263 -111 -395 -14 -84
-26 -154 -27 -155 -1 -1 -49 9 -107 22 -182 41 -264 49 -510 49 -198 -1 -255
-4 -360 -23 -225 -41 -439 -110 -635 -206 -49 -24 -93 -41 -96 -38 -4 4 -28
61 -54 127 -52 132 -94 215 -162 318 -25 37 -43 70 -40 73 12 13 228 -113 315
-183 24 -20 45 -33 48 -30 3 3 -8 88 -25 188 -39 239 -46 293 -35 286 5 -3
123 -82 263 -177 139 -94 257 -168 261 -163 4 4 44 112 88 238 86 246 93 265
97 265 1 0 63 -94 136 -210z m460 -612 c64 -38 114 -79 201 -165 l77 -76 -5
39 c-3 21 -15 69 -26 107 -12 37 -19 70 -16 72 9 10 213 -57 318 -104 167 -74
330 -191 330 -235 0 -41 38 -174 80 -277 22 -56 39 -103 38 -105 -2 -1 -35 25
-73 58 -38 33 -101 85 -140 114 -130 98 -347 225 -361 211 -3 -3 -12 -33 -20
-66 -16 -72 -39 -121 -57 -121 -6 0 -39 18 -72 41 -89 60 -266 164 -321 189
-45 21 -52 21 -123 10 -88 -14 -283 -76 -362 -115 -58 -28 -209 -126 -209
-135 0 -3 20 -21 45 -40 24 -19 44 -37 44 -40 0 -3 -39 -24 -88 -47 -64 -30
-108 -61 -161 -111 l-74 -68 84 -12 c85 -12 100 -21 100 -58 0 -73 84 -195
172 -250 100 -64 117 -66 453 -74 236 -6 323 -11 365 -23 30 -9 55 -15 57 -13
9 8 -282 279 -315 293 -25 11 -88 18 -197 23 -102 5 -175 13 -201 23 -59 22
-162 75 -169 87 -28 45 258 190 343 174 50 -9 183 -67 253 -110 l57 -34 51 34
c47 32 125 55 138 42 4 -3 -1 -14 -9 -23 -29 -34 -48 -82 -48 -125 0 -42 3
-46 151 -194 l151 -151 52 21 c45 18 71 21 226 21 139 0 184 -4 219 -17 l44
-17 -49 51 c-27 27 -89 82 -138 121 -63 51 -103 92 -137 145 -27 40 -60 88
-74 106 -14 19 -22 37 -17 39 7 5 118 -53 163 -85 13 -9 23 -6 50 14 49 37 99
60 115 54 23 -9 71 -84 79 -122 5 -31 2 -41 -21 -65 l-26 -28 20 -28 c11 -15
45 -52 76 -82 l55 -54 7 52 c4 28 10 54 14 56 10 6 96 -122 172 -256 264 -459
343 -940 232 -1429 -26 -118 -62 -241 -73 -253 -5 -4 -46 33 -93 82 l-85 90
-12 -85 c-49 -353 -220 -688 -478 -935 -117 -113 -285 -240 -299 -226 -3 3
-20 59 -37 125 -18 67 -35 124 -39 127 -3 4 -47 -18 -96 -48 -165 -99 -364
-174 -576 -218 -90 -18 -128 -20 -351 -16 -219 3 -260 6 -330 26 -157 43 -335
120 -335 144 0 6 11 71 25 143 30 165 55 388 55 498 0 103 -23 289 -52 411
-28 123 -29 124 -63 73 -75 -115 -212 -284 -320 -397 -123 -127 -248 -241
-265 -241 -24 0 -102 198 -134 340 -55 246 -69 675 -30 884 8 38 12 71 10 73
-2 2 -44 -8 -92 -22 -49 -14 -127 -37 -173 -51 -50 -15 -88 -21 -93 -16 -12
12 16 171 53 300 72 253 215 543 342 695 22 26 37 50 35 53 -3 2 -50 12 -104
20 -55 9 -102 19 -106 23 -8 7 85 172 147 262 121 172 273 332 444 467 76 60
83 57 55 -19 -11 -28 -16 -76 -17 -134 0 -125 35 -215 114 -297 67 -68 87 -75
63 -20 -33 74 -54 168 -54 237 0 139 48 233 144 280 49 24 65 27 133 23 62 -3
92 -10 146 -35 63 -30 67 -31 56 -10 -48 92 -126 157 -223 188 l-51 16 78 37
c176 83 475 165 682 185 50 5 167 8 261 7 164 -2 172 -3 215 -28z"/>
<path d="M3325 2746 c-100 -32 -242 -106 -372 -192 -62 -41 -115 -79 -118 -84
-3 -5 45 -103 108 -217 l114 -208 69 1 c113 1 258 73 467 232 l98 75 -3 139
-3 140 -57 23 c-31 13 -88 44 -127 69 -40 25 -79 46 -89 46 -9 -1 -48 -11 -87
-24z"/>
<path d="M4046 2751 c-4 -6 -48 -38 -97 -71 l-89 -61 0 -125 c0 -76 5 -134 12
-147 6 -12 40 -53 74 -91 35 -38 76 -94 91 -123 15 -29 31 -53 34 -53 12 0 49
113 60 184 15 94 5 232 -26 352 -29 108 -48 153 -59 135z"/>
<path d="M3600 2029 c-46 -40 -184 -131 -247 -163 -28 -14 -72 -30 -99 -36
-76 -18 -77 -19 -67 -33 6 -6 29 -48 53 -92 67 -126 80 -145 100 -145 40 0
164 55 240 106 44 29 82 50 84 46 8 -14 29 -138 35 -217 l7 -80 75 75 c82 83
124 153 163 274 26 78 26 80 9 125 -9 25 -33 73 -53 106 l-35 60 -115 2 -115
3 -35 -31z"/>
</g>
</svg>
